<mxfile host="drawio-plugin" agent="Mozilla/5.0 (Windows NT 10.0; Win64; x64) AppleWebKit/537.36 (KHTML, like Gecko) Chrome/122.0.0.0 Safari/537.36" modified="2024-08-31T18:05:29.569Z" version="22.1.22" etag="HXmXmGX-xL7DittQThUR" type="embed">
  <diagram name="Page-1" id="rbFujBhgJEFJre6PGJxl">
    <mxGraphModel dx="707" dy="712" grid="1" gridSize="10" guides="1" tooltips="1" connect="1" arrows="1" fold="1" page="1" pageScale="1" pageWidth="850" pageHeight="1100" math="0" shadow="0">
      <root>
        <mxCell id="0" />
        <mxCell id="1" parent="0" />
        <mxCell id="Ea3Q8TwGdzC7IwwJ3yhs-2" style="edgeStyle=orthogonalEdgeStyle;rounded=0;orthogonalLoop=1;jettySize=auto;html=1;exitX=0.5;exitY=1;exitDx=0;exitDy=0;" parent="1" source="Ea3Q8TwGdzC7IwwJ3yhs-1" edge="1">
          <mxGeometry relative="1" as="geometry">
            <mxPoint x="240" y="260" as="targetPoint" />
          </mxGeometry>
        </mxCell>
        <mxCell id="Ea3Q8TwGdzC7IwwJ3yhs-1" value="start" style="rounded=1;whiteSpace=wrap;html=1;" parent="1" vertex="1">
          <mxGeometry x="180" y="120" width="120" height="50" as="geometry" />
        </mxCell>
        <mxCell id="Ea3Q8TwGdzC7IwwJ3yhs-4" style="edgeStyle=orthogonalEdgeStyle;rounded=0;orthogonalLoop=1;jettySize=auto;html=1;" parent="1" target="Ea3Q8TwGdzC7IwwJ3yhs-5" edge="1">
          <mxGeometry relative="1" as="geometry">
            <mxPoint x="240" y="400" as="targetPoint" />
            <mxPoint x="240" y="320" as="sourcePoint" />
          </mxGeometry>
        </mxCell>
        <mxCell id="Ea3Q8TwGdzC7IwwJ3yhs-5" value="end" style="rounded=1;whiteSpace=wrap;html=1;" parent="1" vertex="1">
          <mxGeometry x="180" y="1070" width="120" height="60" as="geometry" />
        </mxCell>
        <mxCell id="Ea3Q8TwGdzC7IwwJ3yhs-7" value="x(int)=55" style="rounded=0;whiteSpace=wrap;html=1;" parent="1" vertex="1">
          <mxGeometry x="180" y="260" width="120" height="60" as="geometry" />
        </mxCell>
        <mxCell id="Ea3Q8TwGdzC7IwwJ3yhs-8" value="x" style="shape=document;whiteSpace=wrap;html=1;boundedLbl=1;" parent="1" vertex="1">
          <mxGeometry x="180" y="400" width="120" height="80" as="geometry" />
        </mxCell>
        <mxCell id="Ea3Q8TwGdzC7IwwJ3yhs-11" value="mul(int)=x*y" style="rounded=0;whiteSpace=wrap;html=1;" parent="1" vertex="1">
          <mxGeometry x="180" y="760" width="120" height="60" as="geometry" />
        </mxCell>
        <mxCell id="Ea3Q8TwGdzC7IwwJ3yhs-12" value="" style="shape=document;whiteSpace=wrap;html=1;boundedLbl=1;" parent="1" vertex="1">
          <mxGeometry x="180" y="880" width="120" height="80" as="geometry" />
        </mxCell>
        <mxCell id="2" value="y(int)=55555" style="rounded=0;whiteSpace=wrap;html=1;" vertex="1" parent="1">
          <mxGeometry x="181" y="550" width="120" height="60" as="geometry" />
        </mxCell>
        <mxCell id="3" value="y" style="shape=document;whiteSpace=wrap;html=1;boundedLbl=1;" vertex="1" parent="1">
          <mxGeometry x="180" y="650" width="120" height="80" as="geometry" />
        </mxCell>
      </root>
    </mxGraphModel>
  </diagram>
</mxfile>
